<svg width="152" height="148" viewBox="0 0 152 148" fill="none" xmlns="http://www.w3.org/2000/svg">
<path d="M150.5 20C150.5 21.9412 148.98 24.1815 145.235 26.5113C141.57 28.7914 136.168 30.8996 129.358 32.6915C115.762 36.2695 96.8964 38.5 76 38.5C55.1036 38.5 36.238 36.2695 22.6416 32.6915C15.8323 30.8996 10.4296 28.7914 6.76487 26.5113C3.0202 24.1815 1.5 21.9412 1.5 20C1.5 18.0588 3.0202 15.8185 6.76487 13.4887C10.4296 11.2086 15.8323 9.10039 22.6416 7.30848C36.238 3.73049 55.1036 1.5 76 1.5C96.8964 1.5 115.762 3.73049 129.358 7.30848C136.168 9.10039 141.57 11.2086 145.235 13.4887C148.98 15.8185 150.5 18.0588 150.5 20Z" stroke="#240465" stroke-width="3"/>
<path d="M150.5 128C150.5 129.941 148.98 132.181 145.235 134.511C141.57 136.791 136.168 138.9 129.358 140.692C115.762 144.27 96.8964 146.5 76 146.5C55.1036 146.5 36.238 144.27 22.6416 140.692C15.8323 138.9 10.4296 136.791 6.76487 134.511C3.0202 132.181 1.5 129.941 1.5 128C1.5 126.059 3.0202 123.819 6.76487 121.489C10.4296 119.209 15.8323 117.1 22.6416 115.308C36.238 111.73 55.1036 109.5 76 109.5C96.8964 109.5 115.762 111.73 129.358 115.308C136.168 117.1 141.57 119.209 145.235 121.489C148.98 123.819 150.5 126.059 150.5 128Z" stroke="#240465" stroke-width="3"/>
<circle cx="76" cy="74" r="6" fill="#240465"/>
<circle cx="111" cy="74" r="6" fill="#240465"/>
<circle cx="146" cy="74" r="6" fill="#240465"/>
<circle cx="76" cy="91" r="6" fill="#240465"/>
<circle cx="146" cy="57" r="6" fill="#240465"/>
<circle cx="111" cy="57" r="6" fill="#240465"/>
<circle cx="76" cy="57" r="6" fill="#240465"/>
<circle cx="6" cy="57" r="6" fill="#240465"/>
<circle cx="6" cy="74" r="6" fill="#240465"/>
<circle cx="6" cy="91" r="6" fill="#240465"/>
<circle cx="41" cy="91" r="6" fill="#240465"/>
<circle cx="6" cy="108" r="6" fill="#240465"/>
<circle cx="6" cy="40" r="6" fill="#240465"/>
<circle cx="41" cy="57" r="6" fill="#240465"/>
<circle cx="41" cy="74" r="6" fill="#240465"/>
<circle cx="111" cy="91" r="6" fill="#240465"/>
<circle cx="146" cy="108" r="6" fill="#240465"/>
<circle cx="146" cy="91" r="6" fill="#240465"/>
<circle cx="146" cy="40" r="6" fill="#240465"/>
</svg>
